<mxfile host="Electron" agent="Mozilla/5.0 (Windows NT 10.0; Win64; x64) AppleWebKit/537.36 (KHTML, like Gecko) draw.io/24.7.17 Chrome/128.0.6613.36 Electron/32.0.1 Safari/537.36" version="24.7.17">
  <diagram name="Page-1" id="lCEB9Tai42DyCV3947Hx">
    <mxGraphModel dx="864" dy="516" grid="1" gridSize="10" guides="1" tooltips="1" connect="1" arrows="1" fold="1" page="1" pageScale="1" pageWidth="850" pageHeight="1100" math="0" shadow="0">
      <root>
        <mxCell id="0" />
        <mxCell id="1" parent="0" />
        <mxCell id="UNNRU4si7a3Y1BEknN2N-85" value="HOME CAREGIVER" style="shape=umlActor;verticalLabelPosition=bottom;verticalAlign=top;html=1;outlineConnect=0;" vertex="1" parent="1">
          <mxGeometry x="60" y="270" width="30" height="60" as="geometry" />
        </mxCell>
        <mxCell id="UNNRU4si7a3Y1BEknN2N-86" value="&amp;nbsp;DOCTOR/ NURSE" style="shape=umlActor;verticalLabelPosition=bottom;verticalAlign=top;html=1;outlineConnect=0;" vertex="1" parent="1">
          <mxGeometry x="730" y="280" width="30" height="60" as="geometry" />
        </mxCell>
        <mxCell id="UNNRU4si7a3Y1BEknN2N-87" value="SYSTEM ADMINISTRATOR" style="shape=umlActor;verticalLabelPosition=bottom;verticalAlign=top;html=1;outlineConnect=0;" vertex="1" parent="1">
          <mxGeometry x="710" y="150" width="30" height="60" as="geometry" />
        </mxCell>
        <mxCell id="UNNRU4si7a3Y1BEknN2N-88" value="" style="endArrow=classic;html=1;rounded=0;" edge="1" parent="1">
          <mxGeometry width="50" height="50" relative="1" as="geometry">
            <mxPoint x="100" y="310" as="sourcePoint" />
            <mxPoint x="350" y="450" as="targetPoint" />
          </mxGeometry>
        </mxCell>
        <mxCell id="UNNRU4si7a3Y1BEknN2N-89" value="" style="endArrow=classic;html=1;rounded=0;entryX=1.017;entryY=0.375;entryDx=0;entryDy=0;entryPerimeter=0;" edge="1" parent="1" source="UNNRU4si7a3Y1BEknN2N-86" target="UNNRU4si7a3Y1BEknN2N-94">
          <mxGeometry width="50" height="50" relative="1" as="geometry">
            <mxPoint x="210" y="823" as="sourcePoint" />
            <mxPoint x="535" y="630" as="targetPoint" />
          </mxGeometry>
        </mxCell>
        <mxCell id="UNNRU4si7a3Y1BEknN2N-90" value="" style="endArrow=classic;html=1;rounded=0;entryX=1;entryY=0.5;entryDx=0;entryDy=0;" edge="1" parent="1" target="UNNRU4si7a3Y1BEknN2N-95">
          <mxGeometry width="50" height="50" relative="1" as="geometry">
            <mxPoint x="690" y="350" as="sourcePoint" />
            <mxPoint x="490" y="430" as="targetPoint" />
          </mxGeometry>
        </mxCell>
        <mxCell id="UNNRU4si7a3Y1BEknN2N-91" value="" style="endArrow=classic;html=1;rounded=0;" edge="1" parent="1">
          <mxGeometry width="50" height="50" relative="1" as="geometry">
            <mxPoint x="730" y="370" as="sourcePoint" />
            <mxPoint x="480" y="560" as="targetPoint" />
          </mxGeometry>
        </mxCell>
        <mxCell id="UNNRU4si7a3Y1BEknN2N-92" value="ELDERCARE GUARDIAN" style="swimlane;whiteSpace=wrap;html=1;" vertex="1" parent="1">
          <mxGeometry x="305" y="130" width="220" height="870" as="geometry" />
        </mxCell>
        <mxCell id="UNNRU4si7a3Y1BEknN2N-93" value="MONITOR&amp;nbsp; HEALTH" style="ellipse;whiteSpace=wrap;html=1;" vertex="1" parent="UNNRU4si7a3Y1BEknN2N-92">
          <mxGeometry x="50" y="390" width="120" height="80" as="geometry" />
        </mxCell>
        <mxCell id="UNNRU4si7a3Y1BEknN2N-94" value="REGISTER/ LOGIN" style="ellipse;whiteSpace=wrap;html=1;" vertex="1" parent="UNNRU4si7a3Y1BEknN2N-92">
          <mxGeometry x="50" y="180" width="120" height="80" as="geometry" />
        </mxCell>
        <mxCell id="UNNRU4si7a3Y1BEknN2N-95" value="INPUT HEALTH DATA" style="ellipse;whiteSpace=wrap;html=1;" vertex="1" parent="UNNRU4si7a3Y1BEknN2N-92">
          <mxGeometry x="50" y="280" width="120" height="80" as="geometry" />
        </mxCell>
        <mxCell id="UNNRU4si7a3Y1BEknN2N-96" value="RECEIVE ALERTS" style="ellipse;whiteSpace=wrap;html=1;" vertex="1" parent="UNNRU4si7a3Y1BEknN2N-92">
          <mxGeometry x="50" y="510" width="120" height="80" as="geometry" />
        </mxCell>
        <mxCell id="UNNRU4si7a3Y1BEknN2N-97" value="SET MEDICATION REMINDERS" style="ellipse;whiteSpace=wrap;html=1;" vertex="1" parent="UNNRU4si7a3Y1BEknN2N-92">
          <mxGeometry x="50" y="630" width="120" height="80" as="geometry" />
        </mxCell>
        <mxCell id="UNNRU4si7a3Y1BEknN2N-98" value="GENERATE REPORTS" style="ellipse;whiteSpace=wrap;html=1;" vertex="1" parent="UNNRU4si7a3Y1BEknN2N-92">
          <mxGeometry x="50" y="750" width="120" height="80" as="geometry" />
        </mxCell>
        <mxCell id="UNNRU4si7a3Y1BEknN2N-100" value="" style="endArrow=classic;html=1;rounded=0;entryX=0.042;entryY=0.375;entryDx=0;entryDy=0;entryPerimeter=0;" edge="1" parent="UNNRU4si7a3Y1BEknN2N-92" target="UNNRU4si7a3Y1BEknN2N-94">
          <mxGeometry width="50" height="50" relative="1" as="geometry">
            <mxPoint x="-205" y="160" as="sourcePoint" />
            <mxPoint x="40" y="160" as="targetPoint" />
          </mxGeometry>
        </mxCell>
        <mxCell id="UNNRU4si7a3Y1BEknN2N-101" value="MANAGE USER ACCOUNTS" style="ellipse;whiteSpace=wrap;html=1;" vertex="1" parent="UNNRU4si7a3Y1BEknN2N-92">
          <mxGeometry x="50" y="70" width="120" height="80" as="geometry" />
        </mxCell>
        <mxCell id="UNNRU4si7a3Y1BEknN2N-102" value="" style="endArrow=classic;html=1;rounded=0;entryX=0.008;entryY=0.313;entryDx=0;entryDy=0;entryPerimeter=0;" edge="1" parent="1" target="UNNRU4si7a3Y1BEknN2N-93">
          <mxGeometry width="50" height="50" relative="1" as="geometry">
            <mxPoint x="120" y="360" as="sourcePoint" />
            <mxPoint x="320" y="450" as="targetPoint" />
          </mxGeometry>
        </mxCell>
        <mxCell id="UNNRU4si7a3Y1BEknN2N-103" value="" style="endArrow=classic;html=1;rounded=0;entryX=1.017;entryY=0.375;entryDx=0;entryDy=0;entryPerimeter=0;" edge="1" parent="1">
          <mxGeometry width="50" height="50" relative="1" as="geometry">
            <mxPoint x="690" y="170" as="sourcePoint" />
            <mxPoint x="460" y="218" as="targetPoint" />
          </mxGeometry>
        </mxCell>
        <mxCell id="UNNRU4si7a3Y1BEknN2N-104" value="" style="endArrow=classic;html=1;rounded=0;entryX=1;entryY=0.5;entryDx=0;entryDy=0;" edge="1" parent="1">
          <mxGeometry width="50" height="50" relative="1" as="geometry">
            <mxPoint x="670" y="210" as="sourcePoint" />
            <mxPoint x="460" y="310" as="targetPoint" />
          </mxGeometry>
        </mxCell>
        <mxCell id="UNNRU4si7a3Y1BEknN2N-105" value="" style="endArrow=classic;html=1;rounded=0;" edge="1" parent="1">
          <mxGeometry width="50" height="50" relative="1" as="geometry">
            <mxPoint x="750" y="370" as="sourcePoint" />
            <mxPoint x="480" y="670" as="targetPoint" />
          </mxGeometry>
        </mxCell>
        <mxCell id="UNNRU4si7a3Y1BEknN2N-106" value="" style="endArrow=classic;html=1;rounded=0;" edge="1" parent="1">
          <mxGeometry width="50" height="50" relative="1" as="geometry">
            <mxPoint x="770" y="370" as="sourcePoint" />
            <mxPoint x="480" y="800" as="targetPoint" />
          </mxGeometry>
        </mxCell>
        <mxCell id="UNNRU4si7a3Y1BEknN2N-107" value="" style="endArrow=classic;html=1;rounded=0;" edge="1" parent="1">
          <mxGeometry width="50" height="50" relative="1" as="geometry">
            <mxPoint x="790" y="370" as="sourcePoint" />
            <mxPoint x="480" y="920" as="targetPoint" />
          </mxGeometry>
        </mxCell>
        <mxCell id="UNNRU4si7a3Y1BEknN2N-108" value="" style="endArrow=classic;html=1;rounded=0;" edge="1" parent="1">
          <mxGeometry width="50" height="50" relative="1" as="geometry">
            <mxPoint x="40" y="360" as="sourcePoint" />
            <mxPoint x="350" y="780" as="targetPoint" />
          </mxGeometry>
        </mxCell>
        <mxCell id="UNNRU4si7a3Y1BEknN2N-109" value="" style="endArrow=classic;html=1;rounded=0;" edge="1" parent="1">
          <mxGeometry width="50" height="50" relative="1" as="geometry">
            <mxPoint x="70" y="350" as="sourcePoint" />
            <mxPoint x="350" y="660" as="targetPoint" />
          </mxGeometry>
        </mxCell>
        <mxCell id="UNNRU4si7a3Y1BEknN2N-111" value="&lt;b&gt;&lt;u&gt;&lt;font style=&quot;font-size: 16px;&quot;&gt;USE CASE DIAGRAM&lt;/font&gt;&lt;/u&gt;&lt;/b&gt;" style="text;html=1;align=center;verticalAlign=middle;resizable=0;points=[];autosize=1;strokeColor=none;fillColor=none;" vertex="1" parent="1">
          <mxGeometry x="305" y="38" width="190" height="30" as="geometry" />
        </mxCell>
      </root>
    </mxGraphModel>
  </diagram>
</mxfile>
